<svg xmlns="http://www.w3.org/2000/svg" version="1.1" xmlns:xlink="http://www.w3.org/1999/xlink" xmlns:svgjs="http://svgjs.com/svgjs" width="512" height="512" x="0" y="0" viewBox="0 0 512 512" style="enable-background:new 0 0 512 512" xml:space="preserve"><g><linearGradient id="SVGID_1_" gradientUnits="userSpaceOnUse" x1="256" x2="256" y1="490.588" y2="21.412"><stop offset="0" stop-color="#e93528"></stop><stop offset="1" stop-color="#f8bc16"></stop></linearGradient><path d="m91.987 121.737v-84.325c0-8.836-7.164-16-16-16s-16 7.164-16 16v84.324c-34.24 7.37-59.987 37.867-59.987 74.277 0 36.411 25.747 66.908 59.987 74.277v204.298c0 8.837 7.164 16 16 16s16-7.163 16-16v-204.298c34.24-7.369 59.986-37.867 59.986-74.277s-25.746-66.907-59.986-74.276zm-16 118.263c-24.255 0-43.987-19.732-43.987-43.987s19.732-43.986 43.987-43.986 43.986 19.732 43.986 43.986-19.732 43.987-43.986 43.987zm436.013-43.987c0-36.41-25.747-66.908-59.987-74.277v-84.324c0-8.836-7.164-16-16-16s-16 7.164-16 16v84.324c-34.24 7.369-59.986 37.866-59.986 74.277s25.747 66.908 59.986 74.277v204.298c0 8.837 7.164 16 16 16s16-7.163 16-16v-204.298c34.24-7.369 59.987-37.866 59.987-74.277zm-75.987 43.987c-24.254 0-43.986-19.732-43.986-43.987s19.732-43.986 43.986-43.986 43.987 19.732 43.987 43.986-19.732 43.987-43.987 43.987zm-164.013 1.71v-204.298c0-8.836-7.164-16-16-16s-16 7.164-16 16v204.298c-34.24 7.369-59.987 37.867-59.987 74.277 0 36.411 25.747 66.908 59.987 74.278v84.324c0 8.837 7.164 16 16 16s16-7.163 16-16v-84.324c34.24-7.369 59.987-37.867 59.987-74.278 0-36.41-25.747-66.908-59.987-74.277zm-16 118.264c-24.254 0-43.987-19.732-43.987-43.987s19.733-43.987 43.987-43.987 43.987 19.732 43.987 43.986c0 24.255-19.733 43.988-43.987 43.988z" fill="url(#SVGID_1_)" data-original="url(#SVGID_1_)"></path></g></svg>