<svg xmlns="http://www.w3.org/2000/svg" version="1.1" xmlns:xlink="http://www.w3.org/1999/xlink" xmlns:svgjs="http://svgjs.com/svgjs" width="512" height="512" x="0" y="0" viewBox="0 0 64 64" style="enable-background:new 0 0 512 512" xml:space="preserve"><g><linearGradient id="lg1"><stop offset="0" stop-color="#00a5e9"></stop><stop offset="1" stop-color="#15ffce"></stop></linearGradient><linearGradient id="SVGID_1_" gradientUnits="userSpaceOnUse" x1="21.676" x2="21.676" xlink:href="#lg1" y1="58" y2="6"></linearGradient><linearGradient id="SVGID_3_" gradientUnits="userSpaceOnUse" x1="18" x2="18" xlink:href="#lg1" y1="58" y2="6"></linearGradient><linearGradient id="SVGID_4_" gradientUnits="userSpaceOnUse" x1="40.121" x2="40.121" xlink:href="#lg1" y1="58" y2="6"></linearGradient><linearGradient id="SVGID_5_" gradientUnits="userSpaceOnUse" x1="25.395" x2="25.395" xlink:href="#lg1" y1="58" y2="6"></linearGradient><linearGradient id="SVGID_7_" gradientUnits="userSpaceOnUse" x1="42.877" x2="42.877" xlink:href="#lg1" y1="58" y2="6"></linearGradient><path d="m30.351 38c0-.552-.447-1-1-1h-15.351c-.553 0-1 .448-1 1s.447 1 1 1h15.351c.552 0 1-.448 1-1z" fill="url(#SVGID_1_)" data-original="url(#SVGID_1_)"></path><path d="m14 27h15.351c.553 0 1-.448 1-1s-.447-1-1-1h-15.351c-.553 0-1 .448-1 1s.447 1 1 1z" fill="url(#SVGID_1_)" data-original="url(#SVGID_1_)"></path><path d="m8 33h20c.553 0 1-.448 1-1s-.447-1-1-1h-20c-.553 0-1 .448-1 1s.447 1 1 1z" fill="url(#SVGID_3_)" data-original="url(#SVGID_3_)"></path><path d="m33.758 36.243c.195.195.451.293.707.293s.512-.098.707-.293l.834-.834c.611.32 1.302.493 1.994.493 1.987 0 4-1.34 4-3.902 0-.806-.215-1.476-.55-2.036l5.035-5.035c.391-.391.391-1.023 0-1.414s-1.023-.391-1.414 0l-5.076 5.077c-.612-.32-1.303-.493-1.995-.493-1.987 0-4 1.34-4 3.902 0 .806.215 1.476.55 2.036l-.792.792c-.391.39-.391 1.024 0 1.414zm4.242-6.145c.923 0 2 .498 2 1.902s-1.077 1.902-2 1.902-2-.498-2-1.902 1.077-1.902 2-1.902z" fill="url(#SVGID_4_)" data-original="url(#SVGID_4_)"></path><path d="m20 21h10.789c.553 0 1-.448 1-1s-.447-1-1-1h-10.789c-.553 0-1 .448-1 1s.447 1 1 1z" fill="url(#SVGID_5_)" data-original="url(#SVGID_5_)"></path><path d="m31.789 44c0-.552-.447-1-1-1h-10.789c-.553 0-1 .448-1 1s.447 1 1 1h10.789c.553 0 1-.448 1-1z" fill="url(#SVGID_5_)" data-original="url(#SVGID_5_)"></path><path d="m30.212 16.889c2.131-1.098 4.45-1.705 6.788-1.836v1.947c0 .552.447 1 1 1s1-.448 1-1v-1.938c3.211.191 6.368 1.268 9.034 3.211.44.321.86.661 1.261 1.017l-1.396 1.396c-.391.391-.391 1.024 0 1.414.195.195.451.293.707.293s.512-.098.707-.293l1.386-1.386c2.553 2.884 4.001 6.53 4.229 10.285h-1.928c-.553 0-1 .448-1 1s.447 1 1 1h1.937c-.153 2.742-.954 5.476-2.479 7.946-.521.845-1.116 1.619-1.758 2.339l-1.386-1.386c-.391-.391-1.023-.391-1.414 0-.391.39-.391 1.023 0 1.414l1.389 1.389c-2.871 2.536-6.519 4-10.288 4.233v-1.934c0-.552-.447-1-1-1s-1 .448-1 1v1.939c-2.311-.128-4.623-.712-6.788-1.828-.489-.253-1.094-.06-1.347.431s-.061 1.094.431 1.347c2.738 1.412 5.686 2.085 8.604 2.091.034.003.064.02.099.02.044 0 .081-.02.123-.025 4.912-.048 9.714-1.993 13.268-5.511.014-.012.031-.016.044-.029s.018-.031.029-.044c1.008-1.009 1.919-2.137 2.694-3.394 1.874-3.037 2.774-6.429 2.802-9.797.014-.067.04-.129.04-.2 0-.051-.021-.094-.029-.143-.047-4.874-1.962-9.658-5.491-13.225-.018-.021-.025-.047-.045-.067-.022-.022-.051-.03-.074-.049-.666-.661-1.371-1.292-2.148-1.858-3.251-2.37-7.154-3.596-11.075-3.63-.048-.007-.089-.028-.138-.028-.062 0-.114.024-.173.035-2.931.021-5.863.701-8.531 2.076-.491.253-.684.856-.431 1.347s.857.684 1.347.431z" fill="url(#SVGID_7_)" data-original="url(#SVGID_7_)"></path></g></svg>